{
    "asset" : {
        "generator" : "Khronos glTF Blender I/O v0.9.2",
        "version" : "2.0"
    },
    "scene" : 0,
    "scenes" : [
        {
            "name" : "Scene",
            "nodes" : [
                4,
                9
            ]
        }
    ],
    "nodes" : [
        {
            "name" : "Bone1_2",
            "translation" : [
                0,
                0.9735060930252075,
                0
            ]
        },
        {
            "children" : [
                0
            ],
            "name" : "Bone1_1",
            "scale" : [
                1,
                0.9999999403953552,
                1
            ],
            "translation" : [
                0,
                1,
                0
            ]
        },
        {
            "children" : [
                1
            ],
            "name" : "Root1"
        },
        {
            "mesh" : 0,
            "name" : "Cube",
            "skin" : 0,
            "translation" : [
                0,
                2.469764232635498,
                2.108956813812256
            ]
        },
        {
            "children" : [
                3,
                2
            ],
            "name" : "Armature1",
            "translation" : [
                0,
                0,
                2.0583808422088623
            ]
        },
        {
            "name" : "Bone_2_2",
            "translation" : [
                0,
                0.9735060930252075,
                0
            ]
        },
        {
            "children" : [
                5
            ],
            "name" : "Bone2_1",
            "scale" : [
                1,
                0.9999999403953552,
                1
            ],
            "translation" : [
                0,
                1,
                0
            ]
        },
        {
            "children" : [
                6
            ],
            "name" : "Root2"
        },
        {
            "mesh" : 1,
            "name" : "Cube.001",
            "skin" : 1,
            "translation" : [
                0,
                2.592830181121826,
                -2.2446727752685547
            ]
        },
        {
            "children" : [
                8,
                7
            ],
            "name" : "Armature2",
            "translation" : [
                0,
                0,
                -2.1779067516326904
            ]
        }
    ],
    "animations" : [
        {
            "channels" : [
                {
                    "sampler" : 0,
                    "target" : {
                        "node" : 1,
                        "path" : "rotation"
                    }
                },
                {
                    "sampler" : 1,
                    "target" : {
                        "node" : 2,
                        "path" : "translation"
                    }
                }
            ],
            "name" : "animation1",
            "samplers" : [
                {
                    "input" : 10,
                    "interpolation" : "LINEAR",
                    "output" : 11
                },
                {
                    "input" : 10,
                    "interpolation" : "LINEAR",
                    "output" : 12
                }
            ]
        },
        {
            "channels" : [
                {
                    "sampler" : 0,
                    "target" : {
                        "node" : 6,
                        "path" : "rotation"
                    }
                },
                {
                    "sampler" : 1,
                    "target" : {
                        "node" : 7,
                        "path" : "translation"
                    }
                }
            ],
            "name" : "animation2",
            "samplers" : [
                {
                    "input" : 10,
                    "interpolation" : "LINEAR",
                    "output" : 13
                },
                {
                    "input" : 10,
                    "interpolation" : "LINEAR",
                    "output" : 14
                }
            ]
        }
    ],
    "meshes" : [
        {
            "name" : "Cube.013",
            "primitives" : [
                {
                    "attributes" : {
                        "POSITION" : 0,
                        "JOINTS_0" : 1,
                        "WEIGHTS_0" : 2
                    },
                    "indices" : 3
                }
            ]
        },
        {
            "name" : "Cube.014",
            "primitives" : [
                {
                    "attributes" : {
                        "POSITION" : 5,
                        "JOINTS_0" : 6,
                        "WEIGHTS_0" : 7
                    },
                    "indices" : 8
                }
            ]
        }
    ],
    "skins" : [
        {
            "inverseBindMatrices" : 4,
            "joints" : [
                2,
                1,
                0
            ],
            "name" : "Armature1"
        },
        {
            "inverseBindMatrices" : 9,
            "joints" : [
                7,
                6,
                5
            ],
            "name" : "Armature2"
        }
    ],
    "accessors" : [
        {
            "bufferView" : 0,
            "componentType" : 5126,
            "count" : 24,
            "max" : [
                1,
                1,
                1
            ],
            "min" : [
                -1,
                -1.0000001192092896,
                -1
            ],
            "type" : "VEC3"
        },
        {
            "bufferView" : 1,
            "componentType" : 5123,
            "count" : 24,
            "type" : "VEC4"
        },
        {
            "bufferView" : 2,
            "componentType" : 5126,
            "count" : 24,
            "type" : "VEC4"
        },
        {
            "bufferView" : 3,
            "componentType" : 5123,
            "count" : 36,
            "type" : "SCALAR"
        },
        {
            "bufferView" : 4,
            "componentType" : 5126,
            "count" : 3,
            "type" : "MAT4"
        },
        {
            "bufferView" : 5,
            "componentType" : 5126,
            "count" : 24,
            "max" : [
                1,
                1,
                1
            ],
            "min" : [
                -1,
                -1.0000001192092896,
                -1
            ],
            "type" : "VEC3"
        },
        {
            "bufferView" : 6,
            "componentType" : 5123,
            "count" : 24,
            "type" : "VEC4"
        },
        {
            "bufferView" : 7,
            "componentType" : 5126,
            "count" : 24,
            "type" : "VEC4"
        },
        {
            "bufferView" : 8,
            "componentType" : 5123,
            "count" : 36,
            "type" : "SCALAR"
        },
        {
            "bufferView" : 9,
            "componentType" : 5126,
            "count" : 3,
            "type" : "MAT4"
        },
        {
            "bufferView" : 10,
            "componentType" : 5126,
            "count" : 181,
            "max" : [
                7.5
            ],
            "min" : [
                0
            ],
            "type" : "SCALAR"
        },
        {
            "bufferView" : 11,
            "componentType" : 5126,
            "count" : 181,
            "type" : "VEC4"
        },
        {
            "bufferView" : 12,
            "componentType" : 5126,
            "count" : 181,
            "type" : "VEC3"
        },
        {
            "bufferView" : 13,
            "componentType" : 5126,
            "count" : 181,
            "type" : "VEC4"
        },
        {
            "bufferView" : 14,
            "componentType" : 5126,
            "count" : 181,
            "type" : "VEC3"
        }
    ],
    "bufferViews" : [
        {
            "buffer" : 0,
            "byteLength" : 288,
            "byteOffset" : 0
        },
        {
            "buffer" : 0,
            "byteLength" : 192,
            "byteOffset" : 288
        },
        {
            "buffer" : 0,
            "byteLength" : 384,
            "byteOffset" : 480
        },
        {
            "buffer" : 0,
            "byteLength" : 72,
            "byteOffset" : 864
        },
        {
            "buffer" : 0,
            "byteLength" : 192,
            "byteOffset" : 936
        },
        {
            "buffer" : 0,
            "byteLength" : 288,
            "byteOffset" : 1128
        },
        {
            "buffer" : 0,
            "byteLength" : 192,
            "byteOffset" : 1416
        },
        {
            "buffer" : 0,
            "byteLength" : 384,
            "byteOffset" : 1608
        },
        {
            "buffer" : 0,
            "byteLength" : 72,
            "byteOffset" : 1992
        },
        {
            "buffer" : 0,
            "byteLength" : 192,
            "byteOffset" : 2064
        },
        {
            "buffer" : 0,
            "byteLength" : 724,
            "byteOffset" : 2256
        },
        {
            "buffer" : 0,
            "byteLength" : 2896,
            "byteOffset" : 2980
        },
        {
            "buffer" : 0,
            "byteLength" : 2172,
            "byteOffset" : 5876
        },
        {
            "buffer" : 0,
            "byteLength" : 2896,
            "byteOffset" : 8048
        },
        {
            "buffer" : 0,
            "byteLength" : 2172,
            "byteOffset" : 10944
        }
    ],
    "buffers" : [
        {
            "byteLength" : 13116,
            "uri" : "data:application/octet-stream;base64,"
        }
    ]
}
