<svg version="1.1" xmlns="http://www.w3.org/2000/svg" xmlns:xlink="http://www.w3.org/1999/xlink" width="888" height="749"><defs><clipPath id="tdxUeEiksffB"><path fill="none" stroke="none" d=" M 0 0 L 888 0 L 888 749 L 0 749 L 0 0 Z"/></clipPath></defs><g transform="scale(1,1)" clip-path="url(#tdxUeEiksffB)"><g><rect fill="rgb(255,255,255)" stroke="none" x="0" y="0" width="888" height="749" fill-opacity="1"/><path fill="none" stroke="rgb(192,192,192)" paint-order="fill stroke markers" d=" M 16.5 0.5 L 16.5 749.5 M 16.5 0.5 L 16.5 749.5 M 85.5 0.5 L 85.5 749.5 M 155.5 0.5 L 155.5 749.5 M 224.5 0.5 L 224.5 749.5 M 294.5 0.5 L 294.5 749.5 M 363.5 0.5 L 363.5 749.5 M 433.5 0.5 L 433.5 749.5 M 502.5 0.5 L 502.5 749.5 M 572.5 0.5 L 572.5 749.5 M 641.5 0.5 L 641.5 749.5 M 711.5 0.5 L 711.5 749.5 M 780.5 0.5 L 780.5 749.5 M 850.5 0.5 L 850.5 749.5" stroke-opacity="1" stroke-linecap="round" stroke-linejoin="round" stroke-miterlimit="10"/><path fill="none" stroke="rgb(192,192,192)" paint-order="fill stroke markers" d="" stroke-opacity="0.23529411764705882" stroke-linecap="round" stroke-linejoin="round" stroke-miterlimit="10"/><path fill="none" stroke="rgb(192,192,192)" paint-order="fill stroke markers" d=" M 0.5 5.5 L 888.5 5.5 M 0.5 5.5 L 888.5 5.5 M 0.5 75.5 L 888.5 75.5 M 0.5 144.5 L 888.5 144.5 M 0.5 214.5 L 888.5 214.5 M 0.5 283.5 L 888.5 283.5 M 0.5 353.5 L 888.5 353.5 M 0.5 422.5 L 888.5 422.5 M 0.5 492.5 L 888.5 492.5 M 0.5 561.5 L 888.5 561.5 M 0.5 631.5 L 888.5 631.5 M 0.5 700.5 L 888.5 700.5" stroke-opacity="1" stroke-linecap="round" stroke-linejoin="round" stroke-miterlimit="10"/><path fill="none" stroke="rgb(192,192,192)" paint-order="fill stroke markers" d="" stroke-opacity="0.23529411764705882" stroke-linecap="round" stroke-linejoin="round" stroke-miterlimit="10"/><path fill="none" stroke="rgb(0,0,0)" paint-order="fill stroke markers" d=" M 721.1488348837792 492.37967215974714 C 721.1488348837792 766.5179650848473 498.9158392496894 988.7509607189361 224.77754632458812 988.7509607189361 C -49.36074660051324 988.7509607189361 -271.5937422346029 766.5179650848473 -271.5937422346029 492.37967215974714 C -271.5937422346029 218.24137923464696 -49.36074660051324 -3.9916163994417957 224.77754632458812 -3.9916163994417957 C 498.9158392496894 -3.9916163994417957 721.1488348837792 218.24137923464696 721.1488348837792 492.37967215974714 Z" stroke-opacity="0.6980392156862745" stroke-linejoin="round" stroke-miterlimit="10" stroke-width="2.5" stroke-dasharray="10.5,8"/><path fill="rgb(0,0,0)" stroke="none" paint-order="stroke fill markers" d=" M 253.43890111720296 501.24120371201593 C 257.2638569632039 488.86993177988006 252.7193941799086 475.44061094394084 242.16789642231484 467.9343101563222 L 224.77754632458814 492.37967215974714 Z" fill-opacity="0.09803921568627451"/><path fill="none" stroke="rgb(0,0,0)" paint-order="fill stroke markers" d=" M 253.43890111720296 501.24120371201593 C 257.2638569632039 488.86993177988006 252.7193941799086 475.44061094394084 242.16789642231484 467.9343101563222 L 224.77754632458814 492.37967215974714 Z" stroke-opacity="0.6" stroke-linecap="round" stroke-linejoin="round" stroke-miterlimit="10" stroke-width="2.5"/><text fill="rgb(0,0,0)" stroke="none" font-family="geogebra-sans-serif, sans-serif" font-size="16px" font-style="normal" font-weight="normal" text-decoration="normal" x="238" y="491" text-anchor="start" dominant-baseline="alphabetic" fill-opacity="1">α = 71.7526664794713°</text><text fill="none" stroke="rgb(255,255,255)" font-family="geogebra-sans-serif, sans-serif" font-size="16px" font-style="normal" font-weight="normal" text-decoration="normal" x="238" y="491" text-anchor="start" dominant-baseline="alphabetic" stroke-opacity="1" stroke-linejoin="bevel" stroke-miterlimit="10" stroke-width="3">α = 71.7526664794713°</text><text fill="rgb(0,0,0)" stroke="none" font-family="geogebra-sans-serif, sans-serif" font-size="16px" font-style="normal" font-weight="normal" text-decoration="normal" x="238" y="491" text-anchor="start" dominant-baseline="alphabetic" fill-opacity="1">α = 71.7526664794713°</text><path fill="none" stroke="rgb(0,0,0)" paint-order="fill stroke markers" d=" M 224.77754632458814 492.37967215974714 L 398.50955951756487 144.91564577379512" stroke-opacity="0.6980392156862745" stroke-linecap="round" stroke-linejoin="round" stroke-miterlimit="10" stroke-width="2.5"/><path fill="none" stroke="rgb(0,0,0)" paint-order="fill stroke markers" d=" M 398.50955951756487 144.91564577379512 L 888 -99.8295744674214" stroke-opacity="0.6980392156862745" stroke-linecap="round" stroke-linejoin="round" stroke-miterlimit="10" stroke-width="2.5"/><path fill="none" stroke="rgb(0,0,0)" paint-order="fill stroke markers" d=" M 224.77754632458814 492.37967215974714 L 512.5132292080566 87.91381092854954" stroke-opacity="0.6980392156862745" stroke-linecap="round" stroke-linejoin="round" stroke-miterlimit="10" stroke-width="2.5"/><text fill="rgb(0,0,0)" stroke="none" font-family="geogebra-sans-serif, sans-serif" font-size="16px" font-style="normal" font-weight="normal" text-decoration="normal" x="372" y="308" text-anchor="start" dominant-baseline="alphabetic" fill-opacity="1">r</text><text fill="none" stroke="rgb(255,255,255)" font-family="geogebra-sans-serif, sans-serif" font-size="16px" font-style="normal" font-weight="normal" text-decoration="normal" x="372" y="308" text-anchor="start" dominant-baseline="alphabetic" stroke-opacity="1" stroke-linejoin="bevel" stroke-miterlimit="10" stroke-width="3">r</text><text fill="rgb(0,0,0)" stroke="none" font-family="geogebra-sans-serif, sans-serif" font-size="16px" font-style="normal" font-weight="normal" text-decoration="normal" x="372" y="308" text-anchor="start" dominant-baseline="alphabetic" fill-opacity="1">r</text><path fill="none" stroke="rgb(0,0,0)" paint-order="fill stroke markers" d=" M 120.53833840880206 283.90125632817586 L 224.77754632458814 492.37967215974714" stroke-opacity="0.6980392156862745" stroke-linejoin="round" stroke-miterlimit="10" stroke-width="2.5" stroke-dasharray="2.5,3"/><path fill="none" stroke="rgb(0,0,0)" paint-order="fill stroke markers" d=" M 120.53833840880206 283.90125632817586 L 398.50955951756487 144.91564577379512" stroke-opacity="0.6980392156862745" stroke-linejoin="round" stroke-miterlimit="10" stroke-width="2.5" stroke-dasharray="2.5,3"/><path fill="none" stroke="rgb(46,125,50)" paint-order="fill stroke markers" d=" M 224.77754632458814 492.37967215974714 L 557.036310463543 326.25029009027037" stroke-opacity="0.6980392156862745" stroke-linecap="round" stroke-linejoin="round" stroke-miterlimit="10" stroke-width="2.5"/><path fill="rgb(46,125,50)" stroke="none" paint-order="stroke fill markers" fill-rule="evenodd" d=" M 572.2415727105416 318.64765896677113 L 558.9369682444178 330.05160565202 L 555.1356526826683 322.44897452852075 Z" fill-opacity="0.6980392156862745"/><text fill="rgb(46,125,50)" stroke="none" font-family="geogebra-sans-serif, sans-serif" font-size="16px" font-style="normal" font-weight="normal" text-decoration="normal" x="371" y="410" text-anchor="start" dominant-baseline="alphabetic" fill-opacity="1">forward</text><text fill="none" stroke="rgb(255,255,255)" font-family="geogebra-sans-serif, sans-serif" font-size="16px" font-style="normal" font-weight="normal" text-decoration="normal" x="371" y="410" text-anchor="start" dominant-baseline="alphabetic" stroke-opacity="1" stroke-linejoin="bevel" stroke-miterlimit="10" stroke-width="3">forward</text><text fill="rgb(46,125,50)" stroke="none" font-family="geogebra-sans-serif, sans-serif" font-size="16px" font-style="normal" font-weight="normal" text-decoration="normal" x="371" y="410" text-anchor="start" dominant-baseline="alphabetic" fill-opacity="1">forward</text><path fill="none" stroke="rgb(46,125,50)" paint-order="fill stroke markers" d=" M 224.77754632458814 492.37967215974714 L 682.7585656175183 633.9784654537143" stroke-opacity="0.6980392156862745" stroke-linecap="round" stroke-linejoin="round" stroke-miterlimit="10" stroke-width="2.5"/><path fill="rgb(46,125,50)" stroke="none" paint-order="stroke fill markers" fill-rule="evenodd" d=" M 699.0000000000001 639 L 681.5031819809469 638.0388240493347 L 684.0139492540898 629.9181068580939 Z" fill-opacity="0.6980392156862745"/><path fill="rgb(46,125,50)" stroke="none" paint-order="stroke fill markers" d=" M 229.77754632458814 492.37967215974714 C 229.77754632458814 495.1410959089011 227.53897007374212 497.37967215974714 224.77754632458814 497.37967215974714 C 222.01612257543417 497.37967215974714 219.77754632458814 495.1410959089011 219.77754632458814 492.37967215974714 C 219.77754632458814 489.6182484105932 222.01612257543417 487.37967215974714 224.77754632458814 487.37967215974714 C 227.53897007374212 487.37967215974714 229.77754632458814 489.6182484105932 229.77754632458814 492.37967215974714 Z" fill-opacity="1"/><path fill="none" stroke="rgb(0,0,0)" paint-order="fill stroke markers" d=" M 229.77754632458814 492.37967215974714 C 229.77754632458814 495.1410959089011 227.53897007374212 497.37967215974714 224.77754632458814 497.37967215974714 C 222.01612257543417 497.37967215974714 219.77754632458814 495.1410959089011 219.77754632458814 492.37967215974714 C 219.77754632458814 489.6182484105932 222.01612257543417 487.37967215974714 224.77754632458814 487.37967215974714 C 227.53897007374212 487.37967215974714 229.77754632458814 489.6182484105932 229.77754632458814 492.37967215974714 Z" stroke-opacity="1" stroke-linecap="round" stroke-linejoin="round" stroke-miterlimit="10"/><text fill="rgb(46,125,50)" stroke="none" font-family="geogebra-sans-serif, sans-serif" font-size="16px" font-style="normal" font-weight="normal" text-decoration="normal" x="203" y="503" text-anchor="start" dominant-baseline="alphabetic" fill-opacity="1">C</text><text fill="none" stroke="rgb(255,255,255)" font-family="geogebra-sans-serif, sans-serif" font-size="16px" font-style="normal" font-weight="normal" text-decoration="normal" x="203" y="503" text-anchor="start" dominant-baseline="alphabetic" stroke-opacity="1" stroke-linejoin="bevel" stroke-miterlimit="10" stroke-width="3">C</text><text fill="rgb(46,125,50)" stroke="none" font-family="geogebra-sans-serif, sans-serif" font-size="16px" font-style="normal" font-weight="normal" text-decoration="normal" x="203" y="503" text-anchor="start" dominant-baseline="alphabetic" fill-opacity="1">C</text><path fill="rgb(46,125,50)" stroke="none" paint-order="stroke fill markers" d=" M 403.50955951756487 144.91564577379512 C 403.50955951756487 147.6770695229491 401.2709832667188 149.91564577379512 398.50955951756487 149.91564577379512 C 395.7481357684109 149.91564577379512 393.50955951756487 147.6770695229491 393.50955951756487 144.91564577379512 C 393.50955951756487 142.15422202464114 395.7481357684109 139.91564577379512 398.50955951756487 139.91564577379512 C 401.2709832667188 139.91564577379512 403.50955951756487 142.15422202464114 403.50955951756487 144.91564577379512 Z" fill-opacity="1"/><path fill="none" stroke="rgb(0,0,0)" paint-order="fill stroke markers" d=" M 403.50955951756487 144.91564577379512 C 403.50955951756487 147.6770695229491 401.2709832667188 149.91564577379512 398.50955951756487 149.91564577379512 C 395.7481357684109 149.91564577379512 393.50955951756487 147.6770695229491 393.50955951756487 144.91564577379512 C 393.50955951756487 142.15422202464114 395.7481357684109 139.91564577379512 398.50955951756487 139.91564577379512 C 401.2709832667188 139.91564577379512 403.50955951756487 142.15422202464114 403.50955951756487 144.91564577379512 Z" stroke-opacity="1" stroke-linecap="round" stroke-linejoin="round" stroke-miterlimit="10"/><text fill="rgb(46,125,50)" stroke="none" font-family="geogebra-sans-serif, sans-serif" font-size="16px" font-style="normal" font-weight="normal" text-decoration="normal" x="373" y="131" text-anchor="start" dominant-baseline="alphabetic" fill-opacity="1">Offset</text><text fill="none" stroke="rgb(255,255,255)" font-family="geogebra-sans-serif, sans-serif" font-size="16px" font-style="normal" font-weight="normal" text-decoration="normal" x="373" y="131" text-anchor="start" dominant-baseline="alphabetic" stroke-opacity="1" stroke-linejoin="bevel" stroke-miterlimit="10" stroke-width="3">Offset</text><text fill="rgb(46,125,50)" stroke="none" font-family="geogebra-sans-serif, sans-serif" font-size="16px" font-style="normal" font-weight="normal" text-decoration="normal" x="373" y="131" text-anchor="start" dominant-baseline="alphabetic" fill-opacity="1">Offset</text><path fill="none" stroke="rgb(46,125,50)" paint-order="fill stroke markers" d=" M 694.0000000000001 634 L 704.0000000000001 644" stroke-opacity="1" stroke-linecap="square" stroke-miterlimit="10" stroke-width="2.5"/><path fill="none" stroke="rgb(46,125,50)" paint-order="fill stroke markers" d=" M 694.0000000000001 644 L 704.0000000000001 634" stroke-opacity="1" stroke-linecap="square" stroke-miterlimit="10" stroke-width="2.5"/><text fill="rgb(46,125,50)" stroke="none" font-family="geogebra-sans-serif, sans-serif" font-size="16px" font-style="normal" font-weight="normal" text-decoration="normal" x="703" y="629" text-anchor="start" dominant-baseline="alphabetic" fill-opacity="1">Target</text><text fill="none" stroke="rgb(255,255,255)" font-family="geogebra-sans-serif, sans-serif" font-size="16px" font-style="normal" font-weight="normal" text-decoration="normal" x="703" y="629" text-anchor="start" dominant-baseline="alphabetic" stroke-opacity="1" stroke-linejoin="bevel" stroke-miterlimit="10" stroke-width="3">Target</text><text fill="rgb(46,125,50)" stroke="none" font-family="geogebra-sans-serif, sans-serif" font-size="16px" font-style="normal" font-weight="normal" text-decoration="normal" x="703" y="629" text-anchor="start" dominant-baseline="alphabetic" fill-opacity="1">Target</text><path fill="none" stroke="rgb(46,125,50)" paint-order="fill stroke markers" d=" M 567.2415727105416 313.64765896677113 L 577.2415727105416 323.64765896677113" stroke-opacity="1" stroke-linecap="square" stroke-miterlimit="10" stroke-width="2.5"/><path fill="none" stroke="rgb(46,125,50)" paint-order="fill stroke markers" d=" M 567.2415727105416 323.64765896677113 L 577.2415727105416 313.64765896677113" stroke-opacity="1" stroke-linecap="square" stroke-miterlimit="10" stroke-width="2.5"/><path fill="rgb(211,47,47)" stroke="none" paint-order="stroke fill markers" d=" M 517.5132292080566 87.91381092854954 C 517.5132292080566 90.6752346777035 515.2746529572106 92.91381092854954 512.5132292080566 92.91381092854954 C 509.75180545890265 92.91381092854954 507.5132292080566 90.6752346777035 507.5132292080566 87.91381092854954 C 507.5132292080566 85.15238717939557 509.75180545890265 82.91381092854954 512.5132292080566 82.91381092854954 C 515.2746529572106 82.91381092854954 517.5132292080566 85.15238717939557 517.5132292080566 87.91381092854954 Z" fill-opacity="1"/><path fill="none" stroke="rgb(0,0,0)" paint-order="fill stroke markers" d=" M 517.5132292080566 87.91381092854954 C 517.5132292080566 90.6752346777035 515.2746529572106 92.91381092854954 512.5132292080566 92.91381092854954 C 509.75180545890265 92.91381092854954 507.5132292080566 90.6752346777035 507.5132292080566 87.91381092854954 C 507.5132292080566 85.15238717939557 509.75180545890265 82.91381092854954 512.5132292080566 82.91381092854954 C 515.2746529572106 82.91381092854954 517.5132292080566 85.15238717939557 517.5132292080566 87.91381092854954 Z" stroke-opacity="1" stroke-linecap="round" stroke-linejoin="round" stroke-miterlimit="10"/><text fill="rgb(211,47,47)" stroke="none" font-family="geogebra-sans-serif, sans-serif" font-size="16px" font-style="normal" font-weight="normal" text-decoration="normal" x="517" y="78" text-anchor="start" dominant-baseline="alphabetic" fill-opacity="1">I</text><text fill="none" stroke="rgb(255,255,255)" font-family="geogebra-sans-serif, sans-serif" font-size="16px" font-style="normal" font-weight="normal" text-decoration="normal" x="517" y="78" text-anchor="start" dominant-baseline="alphabetic" stroke-opacity="1" stroke-linejoin="bevel" stroke-miterlimit="10" stroke-width="3">I</text><text fill="rgb(211,47,47)" stroke="none" font-family="geogebra-sans-serif, sans-serif" font-size="16px" font-style="normal" font-weight="normal" text-decoration="normal" x="517" y="78" text-anchor="start" dominant-baseline="alphabetic" fill-opacity="1">I</text><path fill="rgb(97,97,97)" stroke="none" paint-order="stroke fill markers" d=" M 125.53833840880206 283.90125632817586 C 125.53833840880206 286.6626800773298 123.29976215795602 288.90125632817586 120.53833840880206 288.90125632817586 C 117.7769146596481 288.90125632817586 115.53833840880206 286.6626800773298 115.53833840880206 283.90125632817586 C 115.53833840880206 281.1398325790219 117.7769146596481 278.90125632817586 120.53833840880206 278.90125632817586 C 123.29976215795602 278.90125632817586 125.53833840880206 281.1398325790219 125.53833840880206 283.90125632817586 Z" fill-opacity="1"/><path fill="none" stroke="rgb(0,0,0)" paint-order="fill stroke markers" d=" M 125.53833840880206 283.90125632817586 C 125.53833840880206 286.6626800773298 123.29976215795602 288.90125632817586 120.53833840880206 288.90125632817586 C 117.7769146596481 288.90125632817586 115.53833840880206 286.6626800773298 115.53833840880206 283.90125632817586 C 115.53833840880206 281.1398325790219 117.7769146596481 278.90125632817586 120.53833840880206 278.90125632817586 C 123.29976215795602 278.90125632817586 125.53833840880206 281.1398325790219 125.53833840880206 283.90125632817586 Z" stroke-opacity="1" stroke-linecap="round" stroke-linejoin="round" stroke-miterlimit="10"/><text fill="rgb(97,97,97)" stroke="none" font-family="geogebra-sans-serif, sans-serif" font-size="16px" font-style="normal" font-weight="normal" text-decoration="normal" x="125" y="274" text-anchor="start" dominant-baseline="alphabetic" fill-opacity="1">A</text><text fill="none" stroke="rgb(255,255,255)" font-family="geogebra-sans-serif, sans-serif" font-size="16px" font-style="normal" font-weight="normal" text-decoration="normal" x="125" y="274" text-anchor="start" dominant-baseline="alphabetic" stroke-opacity="1" stroke-linejoin="bevel" stroke-miterlimit="10" stroke-width="3">A</text><text fill="rgb(97,97,97)" stroke="none" font-family="geogebra-sans-serif, sans-serif" font-size="16px" font-style="normal" font-weight="normal" text-decoration="normal" x="125" y="274" text-anchor="start" dominant-baseline="alphabetic" fill-opacity="1">A</text></g></g></svg>